# xmcd
#
# Track frame offsets:
#	150
#	16602
#	37001
#	56837
#	84730
#	92945
#	113937
#	135709
#	152161
#	172560
#	192168
#	220151
#	228366
#	249358
#
# Disc length: 3613 seconds
#
# Revision: 0
# Processed by: cddbd v1.5.1PL0 Copyright (c) Steve Scherf et al.
# Submitted via: dBpowerAMP V4.0
#
DISCID=b20e1b0e
DTITLE=Daniel Ramos - Pensando En Ti
DYEAR=1900
DGENRE=
TTITLE0=Quiero Edificar
TTITLE1=Alcemonos
TTITLE2=Corazon Quebrantado
TTITLE3=Paz En La Tormenta
TTITLE4=Hay Un Senda
TTITLE5=Libertad Me Dio
TTITLE6=Que Pienses En Jesus
TTITLE7=Quiero Edificar Pista
TTITLE8=Alcemonos Pista
TTITLE9=Corazon Quebrantado Pista
TTITLE10=Paz En La Tormenta Pista
TTITLE11=Hay Un Senda Pista
TTITLE12=Libertad Me Dio Pista
TTITLE13=Que Pienses En Jesus Pista
EXTD=
EXTT0=
EXTT1=
EXTT2=
EXTT3=
EXTT4=
EXTT5=
EXTT6=
EXTT7=
EXTT8=
EXTT9=
EXTT10=
EXTT11=
EXTT12=
EXTT13=
PLAYORDER=
